<svg width="760" height="263" viewBox="0 0 760 263" fill="none" xmlns="http://www.w3.org/2000/svg">
<path d="M61.4876 60.704C61.4876 69.074 58.9456 75.553 53.8616 80.141C48.7776 84.667 41.5856 86.93 32.2856 86.93C23.3576 86.93 16.6926 85.008 12.2906 81.164C7.9506 77.32 5.7806 72.05 5.7806 65.354C5.7806 63.246 5.9666 61.138 6.3386 59.03L28.0076 55.403C27.6976 57.511 27.5426 59.681 27.5426 61.913C27.5426 65.075 28.0386 67.338 29.0306 68.702C30.0846 70.004 31.6346 70.655 33.6806 70.655C35.7886 70.655 37.3386 69.756 38.3306 67.958C39.3226 66.098 39.8186 63.153 39.8186 59.123V24.62H61.4876V60.704ZM98.7087 23.69C108.505 23.69 116.131 26.48 121.587 32.06C127.105 37.578 129.864 45.328 129.864 55.31C129.864 65.292 127.105 73.073 121.587 78.653C116.131 84.171 108.505 86.93 98.7087 86.93C92.2607 86.93 86.6807 85.69 81.9687 83.21C77.3187 80.73 73.7227 77.134 71.1807 72.422C68.7007 67.648 67.4607 61.944 67.4607 55.31C67.4607 48.676 68.7007 43.003 71.1807 38.291C73.7227 33.517 77.3187 29.89 81.9687 27.41C86.6807 24.93 92.2607 23.69 98.7087 23.69ZM98.7087 39.965C95.5467 39.965 93.2217 41.205 91.7337 43.685C90.3077 46.103 89.5947 49.978 89.5947 55.31C89.5947 60.642 90.3077 64.548 91.7337 67.028C93.2217 69.446 95.5467 70.655 98.7087 70.655C101.871 70.655 104.165 69.446 105.591 67.028C107.017 64.548 107.73 60.642 107.73 55.31C107.73 49.978 107.017 46.103 105.591 43.685C104.165 41.205 101.871 39.965 98.7087 39.965ZM158.835 86H137.166V24.62H158.835V86ZM228.213 86H204.777L190.083 58.1L186.735 50.567H186.549L186.921 63.215V86H168.135V24.62H191.571L206.265 52.613L209.613 60.053H209.799L209.427 47.405V24.62H228.213V86ZM317.152 40.523H297.994V86H276.325V40.523H257.074V24.62H317.152V40.523ZM383.791 24.62V86H362.122V63.122H345.289V86H323.62V24.62H345.289V47.219H362.122V24.62H383.791ZM445.177 70.097V86H393.097V24.62H444.061V40.523H414.766V48.149H438.388V62.843H414.766V70.097H445.177ZM496.232 40.523V49.079H519.854V64.982H496.232V86H474.563V24.62H525.434V40.523H496.232ZM553.358 86H531.689V24.62H553.358V86ZM592.512 51.404H620.97V86H606.648L605.904 79.025C602.742 84.295 597.193 86.93 589.257 86.93C583.863 86.93 578.996 85.752 574.656 83.396C570.378 80.978 566.968 77.413 564.426 72.701C561.946 67.989 560.706 62.254 560.706 55.496C560.706 45.452 563.496 37.64 569.076 32.06C574.718 26.48 582.53 23.69 592.512 23.69C600.138 23.69 606.183 24.992 610.647 27.596C615.173 30.2 618.676 34.509 621.156 40.523L600.975 47.777C600.169 42.569 597.596 39.965 593.256 39.965C589.66 39.965 587.025 41.205 585.351 43.685C583.677 46.103 582.84 49.978 582.84 55.31C582.84 61.014 583.739 65.106 585.537 67.586C587.335 70.004 590.156 71.213 594 71.213C596.728 71.213 598.867 70.686 600.417 69.632C602.029 68.516 602.835 66.904 602.835 64.796V64.703H592.512V51.404ZM689.946 24.62V86H668.277V63.122H651.444V86H629.775V24.62H651.444V47.219H668.277V24.62H689.946ZM756.541 40.523H737.383V86H715.714V40.523H696.463V24.62H756.541V40.523Z" fill="white"/>
<path d="M25.4763 207.281V213.813H43.5103V225.954H25.4763V242H8.9333V195.14H47.7703V207.281H25.4763ZM74.9106 194.43C82.3893 194.43 88.2113 196.56 92.3766 200.82C96.5893 205.033 98.6956 210.949 98.6956 218.57C98.6956 226.191 96.5893 232.131 92.3766 236.391C88.2113 240.604 82.3893 242.71 74.9106 242.71C69.9879 242.71 65.7279 241.763 62.1306 239.87C58.5806 237.977 55.8353 235.231 53.8946 231.634C52.0013 227.989 51.0546 223.635 51.0546 218.57C51.0546 213.505 52.0013 209.174 53.8946 205.577C55.8353 201.932 58.5806 199.163 62.1306 197.27C65.7279 195.377 69.9879 194.43 74.9106 194.43ZM74.9106 206.855C72.4966 206.855 70.7216 207.802 69.5856 209.695C68.4969 211.541 67.9526 214.499 67.9526 218.57C67.9526 222.641 68.4969 225.623 69.5856 227.516C70.7216 229.362 72.4966 230.285 74.9106 230.285C77.3246 230.285 79.0759 229.362 80.1646 227.516C81.2533 225.623 81.7976 222.641 81.7976 218.57C81.7976 214.499 81.2533 211.541 80.1646 209.695C79.0759 207.802 77.3246 206.855 74.9106 206.855ZM125.002 226.451H120.458V242H104.27V195.14H129.688C135.936 195.14 140.646 196.465 143.817 199.116C147.036 201.719 148.645 205.624 148.645 210.831C148.645 217.694 145.829 222.309 140.196 224.676L151.272 242H133.309L125.002 226.451ZM120.458 215.588H126.351C128.434 215.588 129.901 215.28 130.753 214.665C131.653 214.002 132.102 212.866 132.102 211.257C132.102 209.695 131.653 208.583 130.753 207.92C129.901 207.257 128.434 206.926 126.351 206.926H120.458V215.588ZM192.813 226.451H188.269V242H172.081V195.14H197.499C203.747 195.14 208.456 196.465 211.628 199.116C214.846 201.719 216.456 205.624 216.456 210.831C216.456 217.694 213.639 222.309 208.007 224.676L219.083 242H201.12L192.813 226.451ZM188.269 215.588H194.162C196.244 215.588 197.712 215.28 198.564 214.665C199.463 214.002 199.913 212.866 199.913 211.257C199.913 209.695 199.463 208.583 198.564 207.92C197.712 207.257 196.244 206.926 194.162 206.926H188.269V215.588ZM249.192 233.054H236.554L234.353 242H217.881L233.075 195.14H252.955L268.22 242H251.322L249.192 233.054ZM246.778 222.759L243.015 207.139H242.802L240.956 215.091L239.039 222.759H246.778ZM313.24 227.658C310.826 237.693 303.608 242.71 291.585 242.71C286.663 242.71 282.403 241.763 278.805 239.87C275.255 237.977 272.51 235.231 270.569 231.634C268.676 227.989 267.729 223.635 267.729 218.57C267.729 213.505 268.676 209.174 270.569 205.577C272.51 201.932 275.255 199.163 278.805 197.27C282.403 195.377 286.663 194.43 291.585 194.43C297.076 194.43 301.762 195.613 305.643 197.98C309.525 200.299 311.939 203.849 312.885 208.63L298.685 214.168C298.307 211.281 297.62 209.34 296.626 208.346C295.632 207.352 294.094 206.855 292.011 206.855C289.55 206.855 287.704 207.802 286.473 209.695C285.243 211.588 284.627 214.547 284.627 218.57C284.627 222.593 285.219 225.552 286.402 227.445C287.586 229.338 289.408 230.285 291.869 230.285C294.094 230.285 295.703 229.788 296.697 228.794C297.691 227.8 298.33 226.167 298.614 223.895L313.24 227.658ZM333.813 242H317.27V195.14H333.813V242ZM367.965 233.054H355.327L353.126 242H336.654L351.848 195.14H371.728L386.993 242H370.095L367.965 233.054ZM365.551 222.759L361.788 207.139H361.575L359.729 215.091L357.812 222.759H365.551ZM427.637 229.859V242H389.865V195.14H406.408V229.859H427.637ZM489.135 222.688C489.135 229.078 487.194 234.024 483.313 237.527C479.432 240.982 473.941 242.71 466.841 242.71C460.025 242.71 454.937 241.243 451.576 238.308C448.263 235.373 446.606 231.35 446.606 226.238C446.606 224.629 446.748 223.019 447.032 221.41L463.575 218.641C463.338 220.25 463.22 221.907 463.22 223.611C463.22 226.025 463.599 227.753 464.356 228.794C465.161 229.788 466.344 230.285 467.906 230.285C469.515 230.285 470.699 229.599 471.456 228.226C472.213 226.806 472.592 224.558 472.592 221.481V195.14H489.135V222.688ZM539.419 221.836C539.419 235.752 531.87 242.71 516.77 242.71C501.671 242.71 494.121 235.752 494.121 221.836V195.14H510.735V223.114C510.735 225.481 511.232 227.279 512.226 228.51C513.268 229.693 514.782 230.285 516.77 230.285C518.758 230.285 520.273 229.693 521.314 228.51C522.356 227.279 522.876 225.481 522.876 223.114V195.14H539.419V221.836ZM565.832 194.43C570.47 194.43 574.423 194.974 577.689 196.063C580.955 197.152 584.197 199.092 587.416 201.885L580.174 212.18C578.044 210.192 575.866 208.772 573.642 207.92C571.464 207.021 569.027 206.571 566.329 206.571C564.672 206.571 563.347 206.831 562.353 207.352C561.359 207.825 560.862 208.464 560.862 209.269C560.862 209.79 561.335 210.192 562.282 210.476C563.228 210.76 564.885 211.115 567.252 211.541C574.115 212.772 579.038 214.641 582.02 217.15C585.049 219.611 586.564 223.09 586.564 227.587C586.564 230.806 585.641 233.551 583.795 235.823C581.949 238.095 579.44 239.823 576.269 241.006C573.097 242.142 569.547 242.71 565.619 242.71C560.081 242.71 555.655 242.189 552.342 241.148C549.028 240.107 545.786 238.426 542.615 236.107L549.715 224.889C551.703 226.83 553.88 228.273 556.247 229.22C558.613 230.119 561.335 230.569 564.412 230.569C567.867 230.569 569.595 229.859 569.595 228.439C569.595 227.682 569.05 227.114 567.962 226.735C566.873 226.356 565.098 225.954 562.637 225.528C559.039 224.865 555.963 224.108 553.407 223.256C550.898 222.404 548.673 220.96 546.733 218.925C544.839 216.89 543.893 214.097 543.893 210.547C543.893 207.328 544.745 204.512 546.449 202.098C548.153 199.684 550.638 197.814 553.904 196.489C557.217 195.116 561.193 194.43 565.832 194.43ZM635.091 207.281H620.465V242H603.922V207.281H589.225V195.14H635.091V207.281ZM656.572 242H640.029V195.14H656.572V242ZM707.693 227.658C705.279 237.693 698.06 242.71 686.038 242.71C681.115 242.71 676.855 241.763 673.258 239.87C669.708 237.977 666.962 235.231 665.022 231.634C663.128 227.989 662.182 223.635 662.182 218.57C662.182 213.505 663.128 209.174 665.022 205.577C666.962 201.932 669.708 199.163 673.258 197.27C676.855 195.377 681.115 194.43 686.038 194.43C691.528 194.43 696.214 195.613 700.096 197.98C703.977 200.299 706.391 203.849 707.338 208.63L693.138 214.168C692.759 211.281 692.073 209.34 691.079 208.346C690.085 207.352 688.546 206.855 686.464 206.855C684.002 206.855 682.156 207.802 680.926 209.695C679.695 211.588 679.08 214.547 679.08 218.57C679.08 222.593 679.671 225.552 680.855 227.445C682.038 229.338 683.86 230.285 686.322 230.285C688.546 230.285 690.156 229.788 691.15 228.794C692.144 227.8 692.783 226.167 693.067 223.895L707.693 227.658ZM751.482 229.859V242H711.722V195.14H750.63V207.281H728.265V213.103H746.299V224.321H728.265V229.859H751.482Z" fill="white"/>
<line y1="138.5" x2="326" y2="138.5" stroke="white"/>
<line x1="432" y1="138.5" x2="758" y2="138.5" stroke="white"/>
<g clip-path="url(#clip0)">
<path d="M379.1 111C393.4 110.8 403 121 405.9 129.3C410.1 141.2 406.4 153.5 396.4 161.2C383.1 171.4 360.3 168.6 352.1 149.3C348 139.5 349.3 125.8 361.5 116.6C366.7 112.7 372.5 110.9 379.1 111ZM393.4 138.4C393.5 140.2 393.3 141.9 392.4 143.6C390.9 146.5 389.5 149.4 388 152.4C387.8 152.8 387.5 153.2 387.5 153.5C387.5 156.8 387.5 160.2 387.5 163.7C390.5 162.8 393 161.3 395.4 159.5C405.5 151.8 408.6 138.1 402.8 127.2C397.6 117.5 386.8 111.9 375.9 113.2C366.2 114.3 358.9 119.3 354.7 127.9C348.7 140 353.2 154.2 364.8 161.1C366.1 161.9 367.5 162.5 369.1 163.3C369.7 159.6 370.1 156.1 370.7 152.7C370.9 151.7 370.7 151 370.1 150.2C367 145.8 363.9 141.4 360.7 137C360 136 359.9 135 360.7 134C362.7 131 364.7 128 366.6 124.9C367.2 123.9 368 123.7 369 124.2C372.1 125.7 375.3 127.2 378.4 128.7C379.4 129.1 379.4 129.7 379.1 130.6C378.3 132.5 376.1 133.5 373.9 133.1C372.9 132.9 372 132.5 371 132.2C370.7 132.7 370.5 133.2 370.2 133.6C369.9 134.1 369.7 134.6 369.4 135.2C375.8 137.9 378.8 143.1 380.6 149.4C381.1 146.9 381.6 144.4 382.1 141.7C383.6 142.5 385 143.1 386.3 143.9C387 144.3 387.4 144.2 388 143.6C389.8 141.8 391.6 140.1 393.4 138.4ZM382.9 153.9C381.1 153.7 379.1 153.5 377.2 153.3C377.7 154 378.7 154.8 379 155.9C379.4 157 379.2 158.3 379.2 159.5C379.2 160.4 379.3 161.2 379.3 162.1C379.7 161.4 379.8 160.7 379.9 159.9C380.4 157.5 380.6 155 382.9 153.9Z" fill="white"/>
<path d="M383.4 138.4C382.9 138.1 382.5 137.8 382 137.5C379.1 135.2 379.1 135.2 381.2 132.3C382.8 130.2 384.4 128.1 385.9 125.9C386.4 125.2 386.9 125 387.5 125.6C388.7 126.6 389.8 127.7 390.9 128.8C391.4 129.3 391.4 129.8 390.9 130.4C388.6 132.9 386.3 135.4 384 137.9C383.9 138.1 383.7 138.2 383.4 138.4Z" fill="white"/>
<path d="M379.8 132.2C381.5 128.3 378.3 127.8 376 126.5C376.9 124.9 377.8 123.4 378.7 121.9C380 119.7 380.1 119.7 382.3 121C383.3 121.6 384.3 122.3 385.2 123.1C385.5 123.3 385.7 124 385.5 124.2C383.7 126.8 381.9 129.4 380.1 132C380.1 132.1 380 132.1 379.8 132.2Z" fill="white"/>
<path d="M391.8 131.1C392.2 131.5 392.6 131.7 392.9 132C395.4 134.5 395.4 134.9 392.8 137.2C391.2 138.7 389.5 140.1 387.9 141.6C387.3 142.1 386.9 142.2 386.3 141.6L386.2 141.5C384 139.7 384 139.3 385.8 137.3C387.5 135.4 389.2 133.6 390.9 131.7C391.2 131.6 391.5 131.4 391.8 131.1Z" fill="white"/>
<path d="M375.1 126C373.2 125.1 371.3 124.2 369.3 123.3C370.4 121.3 371.5 119.3 372.7 117.4C372.8 117.2 373.5 117 373.8 117.1C375.3 117.7 376.7 118.5 378.1 119.2C378.7 119.5 378.8 120.1 378.4 120.7C377.2 122.4 376.2 124.1 375.1 126Z" fill="white"/>
</g>
<defs>
<clipPath id="clip0">
<rect width="57.7" height="56" fill="white" transform="translate(350 111)"/>
</clipPath>
</defs>
</svg>
