<svg width="61" height="61" viewBox="0 0 61 61" fill="none" xmlns="http://www.w3.org/2000/svg">
<path d="M6.1084 17.9462L30.4992 30.1401L54.8901 17.9462C54.7998 16.3921 54.1187 14.9312 52.9864 13.8629C51.854 12.7946 50.356 12.1997 48.7992 12.2H12.1992C10.6425 12.1997 9.14451 12.7946 8.01214 13.8629C6.87977 14.9312 6.19869 16.3921 6.1084 17.9462Z" fill="white"/>
<path d="M54.9001 24.7599L30.5001 36.9599L6.1001 24.7599V42.7C6.1001 44.3178 6.74277 45.8694 7.88675 47.0133C9.03072 48.1573 10.5823 48.8 12.2001 48.8H48.8001C50.4179 48.8 51.9695 48.1573 53.1134 47.0133C54.2574 45.8694 54.9001 44.3178 54.9001 42.7V24.7599Z" fill="white"/>
</svg>
