<svg width="47" height="47" viewBox="0 0 47 47" fill="none" xmlns="http://www.w3.org/2000/svg">
<path d="M23.4937 15.6633C19.1786 15.6633 15.6572 19.1848 15.6572 23.5C15.6572 27.8152 19.1786 31.3367 23.4937 31.3367C27.8088 31.3367 31.3302 27.8152 31.3302 23.5C31.3302 19.1848 27.8088 15.6633 23.4937 15.6633ZM46.9974 23.5C46.9974 20.2548 47.0268 17.039 46.8445 13.7997C46.6623 10.0372 45.804 6.6979 43.0527 3.94654C40.2955 1.1893 36.9622 0.33685 33.1997 0.154602C29.9546 -0.0276463 26.7388 0.00174867 23.4996 0.00174867C20.2544 0.00174867 17.0387 -0.0276463 13.7994 0.154602C10.037 0.33685 6.69777 1.19518 3.94647 3.94654C1.18928 6.70378 0.336844 10.0372 0.154599 13.7997C-0.0276458 17.0449 0.00174863 20.2607 0.00174863 23.5C0.00174863 26.7393 -0.0276458 29.961 0.154599 33.2003C0.336844 36.9628 1.19516 40.3021 3.94647 43.0535C6.70365 45.8107 10.037 46.6632 13.7994 46.8454C17.0446 47.0276 20.2603 46.9983 23.4996 46.9983C26.7447 46.9983 29.9604 47.0276 33.1997 46.8454C36.9622 46.6632 40.3014 45.8048 43.0527 43.0535C45.8098 40.2962 46.6623 36.9628 46.8445 33.2003C47.0327 29.961 46.9974 26.7452 46.9974 23.5ZM23.4937 35.5578C16.8212 35.5578 11.4361 30.1726 11.4361 23.5C11.4361 16.8274 16.8212 11.4422 23.4937 11.4422C30.1662 11.4422 35.5512 16.8274 35.5512 23.5C35.5512 30.1726 30.1662 35.5578 23.4937 35.5578ZM36.0451 13.7644C34.4872 13.7644 33.2291 12.5063 33.2291 10.9484C33.2291 9.39047 34.4872 8.13237 36.0451 8.13237C37.603 8.13237 38.861 9.39047 38.861 10.9484C38.8615 11.3183 38.789 11.6847 38.6476 12.0266C38.5063 12.3685 38.2989 12.6791 38.0373 12.9407C37.7757 13.2022 37.4651 13.4097 37.1232 13.551C36.7814 13.6924 36.415 13.7649 36.0451 13.7644Z" fill="white"/>
</svg>
