<svg width="59" height="59" viewBox="0 0 59 59" fill="none" xmlns="http://www.w3.org/2000/svg">
<path d="M11.5618 0C5.20371 0 0 5.2036 0 11.5618V47.4401C0 53.7982 5.2036 59 11.5618 59H47.4401C53.7982 59 59 53.7982 59 47.4401V11.5618C59 5.20371 53.7982 0 47.4401 0H11.5618ZM14.4698 9.73619C17.5183 9.73619 19.3961 11.7375 19.4541 14.3682C19.4541 16.9409 17.5182 18.9985 14.4108 18.9985H14.3536C11.3631 18.9985 9.43014 16.941 9.43014 14.3682C9.43014 11.7376 11.4215 9.73619 14.4697 9.73619H14.4698ZM40.741 22.0318C46.6039 22.0318 50.9991 25.8639 50.9991 34.0988V49.4721H42.0889V35.1296C42.0889 31.5254 40.7994 29.0665 37.5749 29.0665C35.1133 29.0665 33.646 30.7239 33.0018 32.3249C32.7665 32.8977 32.7086 33.6976 32.7086 34.4989V49.4721H23.7985C23.7985 49.4721 23.9154 25.1763 23.7985 22.6606H32.7104V26.4574C33.8945 24.6305 36.0125 22.0318 40.741 22.0318V22.0318ZM9.9557 22.6625H18.8658V49.4722H9.9557V22.6625Z" fill="white"/>
</svg>
